<svg xmlns="http://www.w3.org/2000/svg" width="411.001" height="119.33" viewBox="0 0 411.001 119.33">
  <g id="Grupo_2" data-name="Grupo 2" transform="translate(-235.71 -375)">
    <path id="Caminho_1" data-name="Caminho 1" d="M44.22-60.61a29.674,29.674,0,0,1,14.8,3.74,27.264,27.264,0,0,1,10.56,10.725,32.7,32.7,0,0,1,3.9,16.225,33.009,33.009,0,0,1-3.9,16.28A27.556,27.556,0,0,1,59.015-2.805,29.336,29.336,0,0,1,44.22.99q-11.77,0-17.6-6.93V0H6.71V-81.62h20.9v27.17Q33.66-60.61,44.22-60.61Zm-4.4,44.99a11.754,11.754,0,0,0,9.02-3.8q3.52-3.795,3.52-10.505,0-6.6-3.52-10.34A11.838,11.838,0,0,0,39.82-44a11.838,11.838,0,0,0-9.02,3.74q-3.52,3.74-3.52,10.34,0,6.71,3.52,10.505A11.754,11.754,0,0,0,39.82-15.62Zm107.47-44v48.73q0,16.61-9.02,24.915T112.31,22.33a66.069,66.069,0,0,1-16.5-1.98,39.018,39.018,0,0,1-13.09-5.83L90.31-.11a26.718,26.718,0,0,0,9.185,4.675A37.168,37.168,0,0,0,110.44,6.27q8.25,0,12.1-3.63t3.85-10.78v-1.98q-6.05,7.04-17.71,7.04A30.628,30.628,0,0,1,94.05-6.655a27.222,27.222,0,0,1-10.67-10.12A28.639,28.639,0,0,1,79.42-31.9a28.429,28.429,0,0,1,3.96-15.015,27.223,27.223,0,0,1,10.67-10.12,30.628,30.628,0,0,1,14.63-3.575q12.76,0,18.7,8.25v-7.26ZM113.63-19.69a13.154,13.154,0,0,0,9.295-3.41,11.446,11.446,0,0,0,3.685-8.8,11.356,11.356,0,0,0-3.63-8.745A13.232,13.232,0,0,0,113.63-44a13.432,13.432,0,0,0-9.405,3.355A11.274,11.274,0,0,0,100.54-31.9a11.365,11.365,0,0,0,3.74,8.8A13.353,13.353,0,0,0,113.63-19.69ZM190.52-77V0H168.74V-60.17h-14.3V-77ZM236.06,1.54a32.939,32.939,0,0,1-17.6-4.73A31.816,31.816,0,0,1,206.415-17Q202.07-26.07,202.07-38.5t4.345-21.505a31.816,31.816,0,0,1,12.045-13.8,32.939,32.939,0,0,1,17.6-4.73,32.735,32.735,0,0,1,17.49,4.73,31.816,31.816,0,0,1,12.045,13.8Q269.94-50.93,269.94-38.5T265.6-17A31.816,31.816,0,0,1,253.55-3.19,32.735,32.735,0,0,1,236.06,1.54Zm0-17.82q5.5,0,8.745-5.335T248.05-38.5q0-11.55-3.245-16.885T236.06-60.72q-5.61,0-8.855,5.335T223.96-38.5q0,11.55,3.245,16.885T236.06-16.28Z" transform="translate(229 472)" fill="#fafafa"/>
    <rect id="Retângulo_1" data-name="Retângulo 1" width="50" height="50" rx="10" transform="translate(503 410.355) rotate(-45)" fill="#e53e3e"/>
    <rect id="Retângulo_2" data-name="Retângulo 2" width="50" height="50" rx="10" transform="translate(540 447) rotate(-45)" fill="#e53e3e"/>
    <rect id="Retângulo_3" data-name="Retângulo 3" width="50" height="50" rx="10" transform="translate(576 410.355) rotate(-45)" fill="#e53e3e"/>
  </g>
</svg>
