<svg xmlns="http://www.w3.org/2000/svg" width="315.204" height="66.462" viewBox="0 0 315.204 66.462">
  <g id="Grupo_2" data-name="Grupo 2" transform="translate(-384.796 -360.852)">
    <path id="União_1" data-name="União 1" d="M27.621,44.649l-9.483-9.78a4.715,4.715,0,0,1,0-6.52l9.483-9.78a4.376,4.376,0,0,1,6.323,0l9.483,9.78a4.715,4.715,0,0,1,0,6.52l-9.483,9.78a4.376,4.376,0,0,1-6.323,0ZM45.886,26.431,36.4,16.651a4.715,4.715,0,0,1,0-6.52L45.886.35a4.376,4.376,0,0,1,6.323,0l9.482,9.781a4.713,4.713,0,0,1,0,6.52l-9.482,9.78a4.376,4.376,0,0,1-6.323,0Zm-36.094,0L.309,16.651a4.715,4.715,0,0,1,0-6.52L9.792.35a4.376,4.376,0,0,1,6.323,0L25.6,10.131a4.715,4.715,0,0,1,0,6.52l-9.483,9.78a4.376,4.376,0,0,1-6.323,0Z" transform="translate(637 371.852)" fill="#e53e3e"/>
    <path id="Caminho_5" data-name="Caminho 5" d="M2.508,13.4A17.553,17.553,0,0,1-6.2,11.55l3.168-8.91A7.278,7.278,0,0,0,.858,3.7,3.335,3.335,0,0,0,3.564,2.508a5.348,5.348,0,0,0,.99-3.5V-35.772h12.54V-.924q0,6.6-3.861,10.461T2.508,13.4Zm8.316-53.13A7.938,7.938,0,0,1,5.28-41.646,6.153,6.153,0,0,1,3.168-46.4,6.153,6.153,0,0,1,5.28-51.15a7.938,7.938,0,0,1,5.544-1.914,8.208,8.208,0,0,1,5.544,1.815A5.858,5.858,0,0,1,18.48-46.6a6.4,6.4,0,0,1-2.112,4.917A7.856,7.856,0,0,1,10.824-39.732ZM41.778.594A22.322,22.322,0,0,1,31.416-1.782a17.933,17.933,0,0,1-7.227-6.6,17.849,17.849,0,0,1-2.607-9.57,17.728,17.728,0,0,1,2.607-9.5,17.753,17.753,0,0,1,7.194-6.567,22.525,22.525,0,0,1,10.4-2.343,22.728,22.728,0,0,1,10.428,2.343A17.552,17.552,0,0,1,59.4-27.489a17.852,17.852,0,0,1,2.574,9.537A18.022,18.022,0,0,1,59.4-8.382a17.7,17.7,0,0,1-7.194,6.6A22.467,22.467,0,0,1,41.778.594Zm0-9.966a7.053,7.053,0,0,0,5.412-2.277,8.912,8.912,0,0,0,2.112-6.3,8.693,8.693,0,0,0-2.112-6.2A7.1,7.1,0,0,0,41.778-26.4a7.1,7.1,0,0,0-5.412,2.244,8.693,8.693,0,0,0-2.112,6.2,8.912,8.912,0,0,0,2.112,6.3A7.053,7.053,0,0,0,41.778-9.372Zm63.162-26.4V-6.534q0,9.966-5.412,14.949T83.952,13.4a39.641,39.641,0,0,1-9.9-1.188,23.411,23.411,0,0,1-7.854-3.5L70.752-.066a16.031,16.031,0,0,0,5.511,2.805A22.3,22.3,0,0,0,82.83,3.762q4.95,0,7.26-2.178T92.4-4.884V-6.072Q88.77-1.848,81.774-1.848A18.377,18.377,0,0,1,73-3.993a16.334,16.334,0,0,1-6.4-6.072,17.183,17.183,0,0,1-2.376-9.075,17.057,17.057,0,0,1,2.376-9.009A16.334,16.334,0,0,1,73-34.221a18.377,18.377,0,0,1,8.778-2.145q7.656,0,11.22,4.95v-4.356Zm-20.2,23.958a7.893,7.893,0,0,0,5.577-2.046,6.868,6.868,0,0,0,2.211-5.28,6.814,6.814,0,0,0-2.178-5.247,7.939,7.939,0,0,0-5.61-2.013A8.059,8.059,0,0,0,79.1-24.387,6.765,6.765,0,0,0,76.89-19.14a6.819,6.819,0,0,0,2.244,5.28A8.012,8.012,0,0,0,84.744-11.814Zm42.174-24.552q8.91,0,13.6,4.059T145.2-19.866V0H133.518V-4.62Q130.812.594,122.958.594a16.525,16.525,0,0,1-7.194-1.452,10.663,10.663,0,0,1-4.587-3.927,10.4,10.4,0,0,1-1.551-5.643,9.157,9.157,0,0,1,3.894-7.887q3.894-2.8,12.012-2.805h7.128q-.33-5.676-7.59-5.676a17.413,17.413,0,0,0-5.214.825,13.893,13.893,0,0,0-4.488,2.277l-4.224-8.514a23.4,23.4,0,0,1,7.227-3.069A34.363,34.363,0,0,1,126.918-36.366Zm-.462,29.04a6.946,6.946,0,0,0,3.828-1.056,5.879,5.879,0,0,0,2.376-3.1v-3.1h-5.412q-5.478,0-5.478,3.63a3.193,3.193,0,0,0,1.254,2.64A5.4,5.4,0,0,0,126.456-7.326Zm47.85-29.04a17.8,17.8,0,0,1,8.877,2.244,16.358,16.358,0,0,1,6.336,6.435,19.618,19.618,0,0,1,2.343,9.735,19.806,19.806,0,0,1-2.343,9.768,16.533,16.533,0,0,1-6.336,6.5A17.6,17.6,0,0,1,174.306.594q-7.062,0-10.56-4.158V0H151.8V-48.972h12.54v16.3Q167.97-36.366,174.306-36.366Zm-2.64,26.994a7.053,7.053,0,0,0,5.412-2.277,8.912,8.912,0,0,0,2.112-6.3,8.693,8.693,0,0,0-2.112-6.2,7.1,7.1,0,0,0-5.412-2.244,7.1,7.1,0,0,0-5.412,2.244,8.693,8.693,0,0,0-2.112,6.2,8.912,8.912,0,0,0,2.112,6.3A7.053,7.053,0,0,0,171.666-9.372Zm63.162-26.4V-6.534q0,9.966-5.412,14.949T213.84,13.4a39.641,39.641,0,0,1-9.9-1.188,23.411,23.411,0,0,1-7.854-3.5L200.64-.066a16.031,16.031,0,0,0,5.511,2.805,22.3,22.3,0,0,0,6.567,1.023q4.95,0,7.26-2.178t2.31-6.468V-6.072q-3.63,4.224-10.626,4.224a18.377,18.377,0,0,1-8.778-2.145,16.333,16.333,0,0,1-6.4-6.072,17.183,17.183,0,0,1-2.376-9.075,17.057,17.057,0,0,1,2.376-9.009,16.333,16.333,0,0,1,6.4-6.072,18.377,18.377,0,0,1,8.778-2.145q7.656,0,11.22,4.95v-4.356Zm-20.2,23.958a7.893,7.893,0,0,0,5.577-2.046,6.868,6.868,0,0,0,2.211-5.28,6.814,6.814,0,0,0-2.178-5.247,7.939,7.939,0,0,0-5.61-2.013,8.059,8.059,0,0,0-5.643,2.013,6.765,6.765,0,0,0-2.211,5.247,6.819,6.819,0,0,0,2.244,5.28A8.012,8.012,0,0,0,214.632-11.814Z" transform="translate(391 413.916)" fill="#2d3748"/>
  </g>
</svg>
